<svg xmlns="http://www.w3.org/2000/svg" width="31" height="31" viewBox="0 0 31 31">
    <g fill="none" fill-rule="evenodd" opacity=".2">
        <g>
            <g transform="translate(-248 -756) translate(248 756)">
                <rect width="31" height="31" fill="#000" fill-opacity=".5" rx="4"/>
                <g fill="#FFF" fill-rule="nonzero" opacity=".7">
                    <g>
                        <path d="M3.98 4.871c-.486 0-.878.396-.878.886s.392.886.878.886.878-.396.878-.886-.392-.886-.878-.886zm3.074 0c-.486 0-.878.396-.878.886s.392.886.878.886.878-.396.878-.886-.392-.886-.878-.886zm3.074 0c-.486 0-.878.396-.878.886s.392.886.878.886.879-.396.879-.886-.393-.886-.879-.886zM7.054 0C3.173 0 .027 2.577.027 5.757c0 1.318.547 2.524 1.452 3.496-.409 1.09-1.26 2.015-1.273 2.026-.181.194-.23.476-.126.72.104.243.343.401.606.401 1.688 0 3.02-.711 3.818-1.282.793.252 1.65.396 2.55.396 3.881 0 7.027-2.577 7.027-5.757C14.08 2.577 10.935 0 7.054 0zm0 10.186c-.733 0-1.457-.114-2.152-.335l-.623-.2-.535.382c-.393.28-.93.593-1.578.803.2-.335.395-.711.546-1.113l.29-.777-.565-.604c-.496-.534-1.092-1.417-1.092-2.585 0-2.441 2.56-4.428 5.71-4.428 3.147 0 5.708 1.987 5.708 4.428s-2.56 4.429-5.709 4.429z" transform="translate(8.611 9.472)"/>
                    </g>
                </g>
            </g>
        </g>
    </g>
</svg>
