<svg width="69" height="69" xmlns="http://www.w3.org/2000/svg" xmlns:xlink="http://www.w3.org/1999/xlink">
    <defs>
        <path id="a" d="M0 0h67.667v67.667H0z"/>
    </defs>
    <g transform="translate(.667 .667)" fill="none" fill-rule="evenodd">
        <mask id="b" fill="#fff">
            <use xlink:href="#a"/>
        </mask>
        <path d="M60.484 23.317c-4.65 8.363-8.302 13.612-15.59 10.045 6.276-8.476 14.055-12.947 18.495-14.968-.992 1.483-1.933 3.174-2.905 4.923zm-15.198.734c3-4.188 9.833-6.169 15.758-6.802-4.582 2.292-11.33 6.595-17.056 13.927-.561-2.722-.138-5.118 1.298-7.125zm9.237 23.74c0 .949-.771 1.721-1.72 1.721H19.535a1.724 1.724 0 0 1-1.721-1.721c0-.95.773-1.721 1.721-1.721h33.268c.949 0 1.72.77 1.72 1.72zm-6.077 17.826H23.891l-3.142-14.055h30.838l-3.14 14.055zM5.677 2.08c8.86.34 19.518 4.262 24.49 11.343 3.136 4.467 3.596 9.578 1.398 15.215C24.209 12.983 12.119 5.252 5.677 2.08zM7.1 11.695c-1.192-3.028-2.338-5.93-3.64-8.402C9.213 5.89 22.643 13.532 30.225 30.629 16.115 34.559 11.531 22.946 7.1 11.695zm60.542 4.1c-.004-.023 0-.043-.005-.067-.003-.01-.012-.017-.014-.025-.005-.016-.003-.031-.009-.044a1.044 1.044 0 0 0-.158-.28c-.012-.018-.034-.029-.05-.047a.957.957 0 0 0-.219-.185c-.031-.02-.062-.032-.094-.05a1.082 1.082 0 0 0-.253-.082c-.032-.006-.062-.014-.094-.016-.017-.003-.034-.011-.052-.011-8.168-.341-18.864 1.988-23.075 7.87-2.096 2.927-2.48 6.434-1.186 10.43-2.145 3.077-4.072 6.644-5.623 10.732h-.38c-.88-4.735-2.16-9.006-3.74-12.829 3.282-6.927 3.002-13.467-.844-18.944C25.556 3.286 10.902-.984.923.191H.92c-.006 0-.013 0-.018.002a1.026 1.026 0 0 0-.324.103C.555.306.535.32.513.33a.976.976 0 0 0-.257.206C.25.544.242.549.236.557A.955.955 0 0 0 .088.79C.077.816.073.845.063.872.06.885.047.893.043.907.04.923.043.937.04.951c-.031.119-.047.24-.035.36l.002.012c.013.115.05.222.098.325.012.024.022.048.038.071.014.024.022.054.038.077C2.062 4.5 3.583 8.36 5.19 12.446c3.751 9.526 8.281 21.03 19.782 21.03 1.826 0 3.842-.312 6.046-.947 1.386 3.454 2.52 7.283 3.333 11.49H19.535a3.776 3.776 0 0 0-3.771 3.772c0 1.762 1.22 3.234 2.858 3.645l3.447 15.429c.104.469.522.802 1.001.802h26.198c.48 0 .897-.333 1-.802l3.45-15.429c1.635-.411 2.858-1.883 2.858-3.645a3.777 3.777 0 0 0-3.773-3.771H39.007c1.332-3.35 2.922-6.34 4.685-8.958 2.023 1.035 3.84 1.496 5.479 1.496 6.298 0 10-6.657 13.105-12.245 1.685-3.03 3.277-5.892 5.07-7.547.08-.074.146-.161.196-.251.009-.013.01-.029.017-.041.048-.095.08-.192.096-.294.006-.036.007-.07.01-.105a1.048 1.048 0 0 0-.023-.28z" fill="#2F3034" mask="url(#b)"/>
    </g>
</svg>
