<svg width="83" height="69" xmlns="http://www.w3.org/2000/svg">
    <g fill="none" fill-rule="evenodd">
        <path d="M23.681 7.636a1.05 1.05 0 1 0-1.49 1.489 1.05 1.05 0 0 0 1.49-1.49" fill="#2F3034"/>
        <path d="M.148.668H82.54v67.665H.15z"/>
        <path d="M75.886 27.567 55.592 7.307l3.64-3.63 20.293 20.259-3.639 3.63zm-31.568-5.98a9.53 9.53 0 0 1 1.75-.165h.003c.688 0 1.25-.557 1.25-1.244 0-.69-.558-1.25-1.25-1.25h-.004c-3.213 0-6.229 1.25-8.503 3.517l-3.045 3.04a3.624 3.624 0 0 1-2.918 1.05c-1.099-.103-2.055-.675-2.692-1.612-.944-1.392-.688-3.414.6-4.699l7.372-7.361a7.344 7.344 0 0 1 5.226-2.161h6.527a8.53 8.53 0 0 0 5.05-1.645l20.374 20.338-10.96 10.94-18.78-18.749zM63.152 47.65a2.66 2.66 0 0 1-3.753-.003l-.017-.01L46.835 35.11a1.253 1.253 0 0 0-1.768 0 1.252 1.252 0 0 0 0 1.763L57.63 49.41l1.955 1.955a2.647 2.647 0 1 1-3.746 3.744L41.318 40.615a1.248 1.248 0 1 0-1.765 1.765l14.52 14.491a2.645 2.645 0 0 1 .003 3.743 2.658 2.658 0 0 1-3.752 0l-2.574-2.567a4.805 4.805 0 0 0-.093-.096s-.002 0-.002-.002L35.806 46.121a1.249 1.249 0 0 0-1.764 0h-.002v.001a1.24 1.24 0 0 0 0 1.762l11.849 11.832h.003c.498.497.774 1.16.774 1.868 0 .707-.276 1.372-.777 1.873a2.656 2.656 0 0 1-3.749 0L8.63 30.002l20.293-20.26 3.776 3.772-4.955 4.95c-2.156 2.147-2.532 5.454-.901 7.857a6.163 6.163 0 0 0 5.106 2.724c1.622 0 3.176-.639 4.336-1.797l3.045-3.04a9.573 9.573 0 0 1 2.359-1.722l21.457 21.42a2.654 2.654 0 0 1 .006 3.745zM34.57 65.069a2.65 2.65 0 0 1 0-3.746l.953-.95 3.75 3.745-.949.95a2.665 2.665 0 0 1-3.754.001zm-3.72-3.556a2.64 2.64 0 0 1-1.877.78h-.003c-.706 0-1.37-.276-1.87-.776a2.618 2.618 0 0 1-.777-1.871c0-.706.276-1.371.779-1.871l2.906-2.905 3.75 3.74-2.909 2.903zm-9.265-5.498a2.638 2.638 0 0 1-.776-1.875 2.602 2.602 0 0 1 .775-1.871l2.622-2.617c.014-.015.033-.032.047-.048l.242-.24 3.748 3.741-2.906 2.906a2.666 2.666 0 0 1-3.752.004zM18.74 47.84a2.62 2.62 0 0 1-.777-1.871c0-.708.278-1.373.777-1.873l.239-.24 3.752 3.744-.276.274a2.66 2.66 0 0 1-3.715-.034zm-15.578-23.3L23.456 4.283l3.701 3.698L6.865 28.24l-3.704-3.7zm79.378-.605c0-.333-.134-.65-.367-.883L60.113 1.034a1.243 1.243 0 0 0-1.764 0l-5.402 5.391h-.002l-.013.014a6.062 6.062 0 0 1-4.298 1.772h-6.527a9.83 9.83 0 0 0-6.99 2.89l-.653.65-4.653-4.646c-.004-.003-.004-.003-.004-.005l-5.469-5.46a1.252 1.252 0 0 0-1.764 0L.512 23.66a1.245 1.245 0 0 0 0 1.762l5.469 5.461 11.232 11.212-.242.24a5.112 5.112 0 0 0-1.505 3.634c0 1.373.536 2.665 1.509 3.631a5.094 5.094 0 0 0 2.434 1.362 5.093 5.093 0 0 0-1.097 3.177 5.11 5.11 0 0 0 1.509 3.638 5.15 5.15 0 0 0 4.018 1.484 5.101 5.101 0 0 0 1.495 4.02 5.12 5.12 0 0 0 3.636 1.503h.003a5.129 5.129 0 0 0 2.422-.604c.187.97.657 1.897 1.41 2.65a5.14 5.14 0 0 0 3.64 1.502 5.154 5.154 0 0 0 3.644-1.502l1.016-1.015c.85.588 1.856.908 2.911.908a5.126 5.126 0 0 0 3.64-1.502 5.129 5.129 0 0 0 1.367-2.435 5.163 5.163 0 0 0 6.818-.412 5.123 5.123 0 0 0 1.492-4.014 5.122 5.122 0 0 0 4.023-1.49 5.144 5.144 0 0 0 .9-6.052 5.1 5.1 0 0 0 2.657-1.407 5.14 5.14 0 0 0-.002-7.268l-.045-.047 11.906-11.886c.002-.002.002-.007.005-.007l5.395-5.388c.233-.234.367-.551.367-.88z" fill="#2F3034"/>
        <path d="M75.92 24.2a1.051 1.051 0 1 0-1.486-1.486A1.051 1.051 0 0 0 75.92 24.2" fill="#2F3034"/>
    </g>
</svg>
