<svg width="72" height="72" xmlns="http://www.w3.org/2000/svg">
    <g fill="#00739A" fill-rule="nonzero">
        <path d="M45.397 31.728c-3.683 0-7.59.766-8.767 2.416a.751.751 0 0 0-.365.635v7.291c0-2.388-4.734-3.476-9.133-3.476-3.683 0-7.59.766-8.767 2.416a.75.75 0 0 0-.365.636v7.629c0 .276.154.506.372.64 1.09 1.483 4.43 2.269 7.753 2.394.332.012.67.018 1.007.018 1.518 0 3.015-.131 4.325-.38 2.71-.502 4.357-1.407 4.727-2.577a.75.75 0 0 0 .08-.328v.318c0 .276.154.507.373.64 1.09 1.483 4.43 2.268 7.752 2.393.331.013.67.019 1.008.019 1.514 0 3.01-.131 4.324-.38 2.71-.502 4.355-1.406 4.727-2.576a.75.75 0 0 0 .081-.33V35.205c0-2.388-4.733-3.476-9.132-3.476zM34.077 46.11c-.084.05-.179.1-.283.151-.076.038-.151.075-.237.113-.055.024-.116.048-.176.073-.54.218-1.256.434-2.204.61-1.427.27-3.113.381-4.743.339-.087-.003-.171 0-.258-.004a24.61 24.61 0 0 1-1.07-.066c-.15-.013-.303-.024-.448-.04-.075-.008-.152-.016-.228-.027l-.08-.01-.157-.018c-1.366-.174-2.448-.453-3.224-.752-.052-.02-.107-.04-.156-.06-.04-.016-.073-.032-.11-.048a4.435 4.435 0 0 1-.657-.347 2.287 2.287 0 0 1-.188-.135 1.218 1.218 0 0 1-.198-.184 2.55 2.55 0 0 1-.072-.086c-.02-.03-.033-.054-.042-.06a.277.277 0 0 1-.024-.1v-1.36c1.749.982 4.747 1.446 7.61 1.446 2.864 0 5.862-.464 7.61-1.445v1.358a.281.281 0 0 1-.033.101c-.007.013-.013.026-.022.039a.808.808 0 0 0-.07.09c-.019.03-.043.053-.068.079a2.213 2.213 0 0 1-.283.228c-.056.037-.122.076-.188.115zm10.312-4.059c.101.004.205.003.308.006.233.007.467.016.7.016 1.494 0 2.99-.131 4.335-.381l.457-.092a8.4 8.4 0 0 0 .485-.108c.05-.014.093-.028.142-.04l.012-.004c.238-.065.47-.13.696-.199.061-.02.111-.04.169-.059.064-.021.125-.044.186-.066.226-.082.437-.163.617-.246l.014-.007c.09-.04.17-.083.254-.125.082-.041.168-.082.243-.124v1.361c0 .294-.897 1.103-3.565 1.598-1.496.284-3.297.395-4.997.337-4.308-.163-6.658-1.363-6.658-1.935v-1.366c.478.27 1.06.509 1.77.718.172.055.355.108.49.131.375.102.798.193 1.336.284.186.031.38.063.618.098l.19.022c.092.011.185.023.296.034.163.023.322.045.494.06.095.008.197.01.293.017.37.031.742.056 1.115.07zm5.053 5.006c-1.5.283-3.29.398-4.997.336-4.308-.162-6.658-1.363-6.658-1.935v-1.365c.478.27 1.06.508 1.77.718.172.055.355.108.49.132.386.103.81.193 1.336.282l.807.12c.093.012.186.024.268.031.173.024.339.046.523.063.095.008.197.01.293.018.37.03.742.056 1.115.07.101.004.205.003.308.005.233.008.467.016.7.016 1.494 0 2.99-.13 4.335-.38l.457-.092c.167-.033.326-.067.487-.11.048-.012.09-.026.137-.039l.028-.008c.234-.063.461-.126.683-.194.061-.02.111-.04.169-.06.064-.02.125-.043.186-.065.226-.082.437-.164.617-.247l.014-.006c.091-.042.174-.085.259-.128.08-.04.164-.08.238-.122v1.361c0 .294-.897 1.104-3.565 1.6zm3.565-8.465a.281.281 0 0 1-.033.1l-.022.04a.808.808 0 0 0-.07.09c-.02.03-.044.053-.068.078a2.213 2.213 0 0 1-.284.228 4.39 4.39 0 0 1-.472.266c-.075.038-.15.075-.237.113-.054.025-.116.05-.176.074-.54.218-1.255.434-2.203.61-1.42.268-3.098.38-4.72.339-.094-.003-.187 0-.281-.005a24.61 24.61 0 0 1-1.07-.066c-.15-.012-.304-.024-.448-.039-.076-.009-.153-.017-.228-.027-.011-.002-.07-.01-.081-.01l-.156-.019c-1.366-.173-2.448-.452-3.224-.751-.052-.02-.107-.04-.156-.06l-.11-.049a4.435 4.435 0 0 1-.657-.347 2.287 2.287 0 0 1-.189-.134 1.218 1.218 0 0 1-.197-.185l-.072-.085c-.02-.031-.033-.055-.042-.06a.277.277 0 0 1-.024-.101V37.234c1.749.98 4.746 1.445 7.61 1.445s5.861-.465 7.61-1.445v1.358zm-7.61-5.338c5.021 0 7.61 1.366 7.61 1.95 0 .583-2.589 1.95-7.61 1.95-5.021 0-7.61-1.367-7.61-1.95 0-.584 2.589-1.95 7.61-1.95zM27.132 40.12c5.021 0 7.61 1.366 7.61 1.95 0 .583-2.589 1.95-7.61 1.95-5.02 0-7.61-1.367-7.61-1.95 0-.584 2.59-1.95 7.61-1.95zm4.045 10.328c-1.495.283-3.297.392-4.997.337-4.308-.164-6.658-1.364-6.658-1.935v-1.366c.478.27 1.06.508 1.77.718.173.055.355.108.49.13.375.103.799.193 1.336.284.187.032.38.063.619.098l.188.022c.093.012.187.024.297.035.164.023.322.044.494.059.095.008.197.01.294.018.37.03.741.055 1.114.07.101.003.206.003.308.005.234.007.467.016.7.016 1.494 0 2.99-.131 4.335-.38l.457-.092a8.4 8.4 0 0 0 .485-.109c.05-.013.094-.027.142-.04l.012-.004c.239-.065.47-.13.697-.198.06-.02.11-.04.168-.06.064-.021.125-.043.187-.065.225-.082.436-.164.616-.247l.014-.007c.09-.04.17-.083.254-.125.082-.04.169-.082.244-.123v1.36c0 .294-.897 1.103-3.566 1.599zm18.265.085c-1.5.283-3.29.398-4.997.336-4.308-.163-6.658-1.364-6.658-1.935v-1.366c.478.27 1.06.509 1.77.718.172.056.355.108.49.132.386.104.81.194 1.336.283l.106.015c.3.05.607.091.917.129l.052.007c.173.024.339.046.523.063.093.008.193.01.287.017.372.031.746.056 1.12.07.134.006.271.005.407.008.2.005.401.014.602.014 1.494 0 2.99-.131 4.335-.38l.457-.092c.167-.034.326-.067.487-.11l.136-.039.036-.01c.23-.063.457-.126.675-.192l.163-.058c.067-.022.132-.046.198-.07.223-.08.431-.161.612-.244l.014-.007c.091-.041.174-.085.259-.128.08-.04.164-.08.238-.121v1.36c0 .294-.897 1.104-3.565 1.6zM29.192 26.61a.76.76 0 0 0-1.039-.034l-6.088 5.34a.764.764 0 0 0 .502 1.338.758.758 0 0 0 .5-.19l5.553-4.87 3.301 3.31c.265.266.681.299.984.08l12.23-8.856-.405 2.715a.762.762 0 0 0 .754.876c.37 0 .695-.271.751-.65l.67-4.488.004-.028.002-.011c.005-.038-.006-.072-.006-.11 0-.054.005-.109-.008-.163a.757.757 0 0 0-.626-.594l-4.516-.677a.758.758 0 0 0-.865.641.762.762 0 0 0 .64.867l2.69.404-11.68 8.456-3.348-3.355z"/>
    </g>
</svg>
