<svg width="72" height="72" xmlns="http://www.w3.org/2000/svg">
    <g fill="#009A93" fill-rule="nonzero">
        <path d="M48.653 22.28h-6.459v-1.07c0-1.77-1.449-3.21-3.23-3.21h-6.458c-1.78 0-3.23 1.44-3.23 3.21v1.07h-6.458c-1.781 0-3.23 1.441-3.23 3.211v2.14c0 .592.482 1.071 1.077 1.071h1.161L23.72 51.6v.01a3.207 3.207 0 0 0 3.217 2.92h17.597a3.207 3.207 0 0 0 3.216-2.92v-.01l1.895-22.898h1.16c.595 0 1.077-.48 1.077-1.07v-2.14c0-1.77-1.448-3.211-3.23-3.211zm-17.224-1.07c0-.59.483-1.07 1.077-1.07h6.459c.593 0 1.076.48 1.076 1.07v1.07H31.43v-1.07zm14.177 30.21c-.053.552-.513.969-1.072.969H26.937c-.56 0-1.02-.417-1.072-.97l-1.879-22.717h23.498l-1.878 22.717zm4.123-24.858H21.741v-1.07c0-.59.483-1.07 1.077-1.07h25.835c.594 0 1.076.48 1.076 1.07v1.07z"/>
        <path d="M35.735 30.842c-.594 0-1.076.48-1.076 1.07v15.126c0 .591.482 1.07 1.076 1.07.595 0 1.077-.479 1.077-1.07V31.913c0-.591-.482-1.07-1.077-1.07zM42.194 30.842c-.594 0-1.076.48-1.076 1.07v15.126c0 .591.482 1.07 1.076 1.07.595 0 1.077-.479 1.077-1.07V31.913c0-.591-.482-1.07-1.077-1.07zM29.276 30.842c-.594 0-1.076.48-1.076 1.07v15.126c0 .591.482 1.07 1.076 1.07.595 0 1.077-.479 1.077-1.07V31.913c0-.591-.482-1.07-1.077-1.07z"/>
    </g>
</svg>
