<svg width="32" height="32" xmlns="http://www.w3.org/2000/svg">
    <path d="M4 16C4 9.373 9.373 4 16 4s12 5.373 12 12c0 6.525-5.209 11.834-11.695 11.996L16 28C9.373 28 4 22.627 4 16zm8.961 9.53-.043-.08c-.625-1.175-1.13-2.699-1.464-4.45l-4.116.001a10.028 10.028 0 0 0 5.623 4.529zM24.661 21h-4.115c-.342 1.79-.863 3.344-1.507 4.53A10.03 10.03 0 0 0 24.662 21zm-6.166 0h-4.99C14.044 23.412 14.96 25 16 25s1.956-1.588 2.495-4zm7.047-8h-4.7c.103.958.158 1.963.158 2.999s-.055 2.041-.158 3h4.7A9.996 9.996 0 0 0 26 16c0-1.045-.16-2.053-.458-3zM6 16c0 1.046.16 2.054.458 3h4.7A28.197 28.197 0 0 1 11 16c0-1.036.055-2.04.157-3h-4.7A9.996 9.996 0 0 0 6 16zm12.83-3h-5.66c-.11.939-.17 1.948-.17 3s.06 2.062.17 3h5.66c.11-.938.17-1.948.17-3s-.06-2.061-.17-3zm.209-6.53.043.08c.625 1.175 1.13 2.7 1.465 4.45h4.115a10.028 10.028 0 0 0-5.623-4.53zm-6.078 0-.172.057A10.03 10.03 0 0 0 7.338 11h4.115c.343-1.791.864-3.345 1.508-4.53zM16 7c-1.04 0-1.957 1.588-2.495 4h4.99C17.957 8.588 17.04 7 16 7z" fill="#1E1E1E" fill-rule="evenodd"/>
</svg>
