<svg xmlns="http://www.w3.org/2000/svg" width="13" height="12" viewBox="0 0 13 12">
    <g fill="none" fill-rule="evenodd">
        <g fill="#666">
            <g>
                <g>
                    <path d="M96.874 47c2.691 0 4.873 2.208 4.873 4.933 0 .933-.256 1.805-.7 2.55.021.011.043.027.063.044l.008.006 3.561 2.919c.372.304.43.85.13 1.225-.296.37-.835.43-1.204.134l-.008-.006-3.561-2.92c-.04-.032-.077-.068-.11-.106-.834.679-1.896 1.086-3.052 1.086-2.692 0-4.874-2.208-4.874-4.932C92 49.208 94.182 47 96.874 47zm0 1.16c-2.059 0-3.727 1.69-3.727 3.773s1.668 3.772 3.727 3.772c2.058 0 3.726-1.69 3.726-3.772 0-2.084-1.668-3.772-3.726-3.772z" transform="translate(-297.000000, -234.000000) translate(0.000000, 138.000000) translate(205.000000, 49.000000)"/>
                </g>
            </g>
        </g>
    </g>
</svg>
