<svg width="20" height="20" xmlns="http://www.w3.org/2000/svg">
    <g fill="none" fill-rule="evenodd">
        <g fill="#FFF">
            <path d="M13.468 3A3.535 3.535 0 0 1 17 6.532v6.936A3.535 3.535 0 0 1 13.468 17H6.532A3.535 3.535 0 0 1 3 13.468V6.532A3.535 3.535 0 0 1 6.532 3h6.936zm0 1.523H6.532a2.01 2.01 0 0 0-2.009 2.009v6.936c0 1.108.901 2.009 2.009 2.009h6.936a2.01 2.01 0 0 0 2.009-2.009V6.532a2.01 2.01 0 0 0-2.009-2.009z"/>
            <path d="M10 6.394A3.61 3.61 0 0 1 13.606 10 3.61 3.61 0 0 1 10 13.606 3.61 3.61 0 0 1 6.394 10 3.61 3.61 0 0 1 10 6.394zm0 1.524A2.085 2.085 0 0 0 7.918 10c0 1.148.934 2.082 2.082 2.082A2.085 2.085 0 0 0 12.082 10 2.084 2.084 0 0 0 10 7.918zM13.722 7.14a.854.854 0 0 1 0-1.706.854.854 0 0 1 0 1.706z"/>
        </g>
        <path d="M0 0h20v20H0z"/>
    </g>
</svg>
