<svg width="20" height="20" xmlns="http://www.w3.org/2000/svg">
    <g fill="none" fill-rule="evenodd">
        <path d="M15.158 7.421h-1.105V4.842A1.844 1.844 0 0 0 12.21 3H4.842A1.844 1.844 0 0 0 3 4.842v10.316C3 16.174 3.826 17 4.842 17h10.316A1.844 1.844 0 0 0 17 15.158V9.263a1.844 1.844 0 0 0-1.842-1.842zm-4.126 6.558H6.02a.442.442 0 1 1 0-.884h5.01a.442.442 0 1 1 0 .884zm0-2.432H6.02a.442.442 0 1 1 0-.884h5.01a.442.442 0 1 1 0 .884zm-.295-2.873H6.316a.739.739 0 0 1-.737-.737V6.463c0-.405.332-.737.737-.737h4.42c.406 0 .737.332.737.737v1.474a.739.739 0 0 1-.736.737zm5.526 6.484c0 .61-.496 1.105-1.105 1.105s-1.105-.496-1.105-1.105v-7h1.105c.61 0 1.105.496 1.105 1.105v5.895z" fill="#FFF" fill-rule="nonzero"/>
        <path d="M0 0h20v20H0z"/>
    </g>
</svg>
