<svg width="72" height="72" xmlns="http://www.w3.org/2000/svg">
    <g fill="none" fill-rule="evenodd">
        <path d="M27.294 27.83c0-.35.218-.698.566-.829a.876.876 0 0 1 .958.218c.61.654 2.437 1.438 5.18 1.7l1.393-1.395a.84.84 0 0 1 1.218 0l1.393 1.395c2.743-.262 4.57-1.046 5.18-1.7a.876.876 0 0 1 .958-.218c.348.13.566.436.566.828v6.885a8.7 8.7 0 0 1-1.175 4.358h3.787v-9.587c0-6.232-5.093-11.33-11.318-11.33s-11.318 5.098-11.318 11.33v9.587h3.787a8.7 8.7 0 0 1-1.175-4.358V27.83z"/>
        <path d="M50.713 45.435c-2.612-1.046-5.79-1.787-9.228-2.18a1.801 1.801 0 0 1-1.306-.914 9.373 9.373 0 0 0 2.09-1.57h5.92c.478 0 .87-.391.87-.87V29.484c0-7.19-5.877-13.073-13.059-13.073-7.182 0-13.059 5.883-13.059 13.073v10.459c0 .48.392.871.87.871h5.964a9.373 9.373 0 0 0 2.09 1.57c-.261.479-.74.827-1.306.914-3.439.392-6.617 1.133-9.228 2.18-3.004 1.132-4.92 4.008-4.92 7.233v2.005c0 .479.393.871.871.871h37.436c.478 0 .87-.392.87-.871v-2.005c0-3.225-1.915-6.1-4.875-7.277zm-22.244-6.363h-3.787v-9.587c0-6.232 5.093-11.33 11.318-11.33s11.318 5.098 11.318 11.33v9.587H43.53c.74-1.307 1.175-2.789 1.175-4.358V27.83a.894.894 0 0 0-.566-.828.876.876 0 0 0-.958.218c-.61.654-2.437 1.438-5.18 1.7l-1.393-1.395a.84.84 0 0 0-1.218 0l-1.393 1.395c-2.743-.262-4.57-1.046-5.18-1.7a.876.876 0 0 0-.958-.218.852.852 0 0 0-.566.828v6.885c0 1.57.435 3.05 1.175 4.358zm.566-4.358v-5.229c1.306.654 3.134 1.09 5.224 1.22.261.044.522-.087.696-.261L36 29.398l1.045 1.046c.174.174.435.261.696.261 2.09-.174 3.918-.61 5.224-1.22v5.23c0 3.834-3.134 6.972-6.965 6.972-3.83 0-6.965-3.138-6.965-6.973zm10.883 9.849c-.13 1.83-1.698 3.486-3.918 4.053-2.22-.61-3.787-2.223-3.918-4.053a3.383 3.383 0 0 0 1.393-1.525A8.057 8.057 0 0 0 36 43.43c.87 0 1.741-.13 2.525-.392a3.383 3.383 0 0 0 1.393 1.525zm13.93 9.282h-6.095v-2.571a.874.874 0 0 0-.87-.872.874.874 0 0 0-.871.872v2.571H25.988v-2.571a.874.874 0 0 0-.87-.872.874.874 0 0 0-.87.872v2.571h-6.095v-1.133c0-2.484 1.523-4.75 3.787-5.665 2.394-.959 5.31-1.656 8.445-2.005.391 2.528 2.48 4.663 5.397 5.36h.436c2.916-.697 5.05-2.832 5.397-5.316 3.134.349 6.094 1.046 8.445 2.005 1.132.435 2.09 1.263 2.742 2.222.087.13.174.261.218.392.087.131.13.262.218.392.087.131.13.305.217.48.044.13.087.261.13.348.175.567.262 1.177.262 1.787v1.133z" fill="#00739A" fill-rule="nonzero"/>
    </g>
</svg>
