<svg width="72" height="72" xmlns="http://www.w3.org/2000/svg">
    <g fill="#00739A" fill-rule="nonzero">
        <path d="M23.885 35.165h-5.513c-1.964 0-3.548 1.838-3.548 4.056v9.695c0 .38.253.634.633.634h1.775v5.323c0 1.014.76 1.774 1.71 1.774h4.373c.95 0 1.71-.76 1.71-1.774V49.55H26.8c.38 0 .634-.254.634-.634v-9.695c0-2.218-1.584-4.056-3.549-4.056zm2.282 13.18h-1.141v-4.752c0-.38-.254-.634-.634-.634s-.633.254-.633.634v11.343c0 .254-.19.507-.444.507h-1.52V49.36c0-.38-.254-.634-.635-.634-.38 0-.633.253-.633.634v6.02h-1.584c-.254 0-.444-.19-.444-.507V43.53c0-.38-.254-.634-.634-.634s-.633.253-.633.634v4.752H16.09v-9.061c0-1.521 1.014-2.789 2.281-2.789h5.513c1.268 0 2.282 1.268 2.282 2.789v9.125zM21.097 34.911c2.155 0 3.866-1.774 3.866-3.992s-1.775-3.992-3.866-3.992-3.865 1.774-3.865 3.992 1.774 3.992 3.865 3.992zm0-6.717c1.458 0 2.598 1.204 2.598 2.725 0 1.521-1.204 2.725-2.598 2.725-1.457 0-2.598-1.204-2.598-2.725 0-1.52 1.204-2.725 2.598-2.725zM53.098 35.165h-5.513c-1.964 0-3.548 1.838-3.548 4.056v9.695c0 .38.253.634.633.634h1.775v5.323c0 .95.76 1.774 1.71 1.774h4.373c.95 0 1.711-.76 1.711-1.774V49.55h1.774c.38 0 .634-.254.634-.634v-9.695c0-2.218-1.584-4.056-3.549-4.056zm2.282 13.18h-1.141v-4.752c0-.38-.253-.634-.634-.634-.38 0-.633.254-.633.634v11.343c0 .254-.19.507-.444.507h-1.52V49.36c0-.38-.254-.634-.634-.634s-.634.253-.634.634v6.02h-1.521c-.253 0-.444-.19-.444-.507V43.53c0-.38-.253-.634-.633-.634s-.634.253-.634.634v4.752h-1.14v-9.061c0-1.521 1.013-2.789 2.28-2.789h5.514c1.267 0 2.281 1.268 2.281 2.789v9.125h-.063zM50.374 34.911c2.154 0 3.865-1.774 3.865-3.992s-1.774-3.992-3.865-3.992c-2.155 0-3.866 1.774-3.866 3.992s1.711 3.992 3.866 3.992zm0-6.717c1.457 0 2.598 1.204 2.598 2.725 0 1.521-1.204 2.725-2.598 2.725-1.458 0-2.599-1.204-2.599-2.725a2.6 2.6 0 0 1 2.599-2.725zM38.524 29.905H33.01c-1.964 0-3.548 1.838-3.548 4.056v9.695c0 .38.253.634.633.634h1.775v5.323c0 .95.76 1.774 1.71 1.774h4.373c.95 0 1.711-.76 1.711-1.774V44.29h1.775c.38 0 .633-.253.633-.634v-9.695c-.063-2.281-1.647-4.056-3.548-4.056zm2.217 13.118h-1.14V38.27c0-.38-.254-.634-.634-.634s-.634.254-.634.634v11.343c0 .254-.19.507-.443.507h-1.521v-6.147c0-.38-.253-.633-.634-.633-.38 0-.633.253-.633.633v6.084H33.58c-.254 0-.444-.19-.444-.507V38.27c0-.38-.253-.634-.634-.634-.38 0-.633.254-.633.634v4.753h-1.14V33.96c0-1.52 1.013-2.788 2.28-2.788h5.514c1.267 0 2.28 1.267 2.28 2.788v9.062h-.063zM35.735 29.589c2.155 0 3.866-1.775 3.866-3.993s-1.775-3.992-3.866-3.992c-2.154 0-3.865 1.774-3.865 3.992s1.71 3.993 3.865 3.993zm0-6.718c1.458 0 2.598 1.204 2.598 2.725 0 1.521-1.204 2.725-2.598 2.725-1.457 0-2.598-1.204-2.598-2.725 0-1.52 1.14-2.725 2.598-2.725zM35.735 20.083c.38 0 .634-.253.634-.634v-3.992c0-.38-.253-.633-.634-.633-.38 0-.633.253-.633.633v3.992c0 .317.253.634.633.634zM41.248 25.596c0 .38.254.634.634.634h3.992c.38 0 .634-.254.634-.634s-.253-.633-.634-.633h-3.992a.635.635 0 0 0-.634.633zM25.66 26.23h3.992c.38 0 .634-.254.634-.634s-.254-.633-.634-.633H25.66c-.38 0-.634.253-.634.633s.253.634.634.634zM30.92 21.667a.613.613 0 0 0 .886 0 .613.613 0 0 0 0-.887l-2.788-2.788a.613.613 0 0 0-.887 0 .613.613 0 0 0 0 .887l2.788 2.788zM40.551 21.667l2.789-2.788a.613.613 0 0 0 0-.887.613.613 0 0 0-.888 0l-2.788 2.788a.613.613 0 0 0 0 .887c.19.254.634.254.887 0z"/>
    </g>
</svg>
