<svg width="69" height="69" xmlns="http://www.w3.org/2000/svg" xmlns:xlink="http://www.w3.org/1999/xlink">
    <defs>
        <path id="a" d="M0 0h67.667v61.515H0z"/>
    </defs>
    <g fill="none" fill-rule="evenodd">
        <g transform="translate(.667 .667)">
            <mask id="b" fill="#fff">
                <use xlink:href="#a"/>
            </mask>
            <path d="M59.638 59.464V11.273c.671.27 1.398.43 2.165.43.766 0 1.496-.152 2.167-.419v48.18h-4.332zm2.165-57.413c2.1 0 3.808 1.704 3.808 3.8a3.808 3.808 0 0 1-7.616 0c0-2.096 1.71-3.8 3.808-3.8zm-16.15 57.413V30.532c.672.27 1.4.42 2.166.42s1.494-.15 2.165-.42v28.932h-4.33zM47.82 21.3c2.1 0 3.807 1.705 3.807 3.801a3.808 3.808 0 0 1-7.615 0 3.808 3.808 0 0 1 3.808-3.8zm-16.15 38.164V19.025c.67.268 1.399.422 2.165.422s1.494-.155 2.165-.426v40.443h-4.33zm2.165-49.668c2.1 0 3.808 1.702 3.808 3.798a3.808 3.808 0 0 1-7.616 0 3.807 3.807 0 0 1 3.808-3.798zM17.682 59.464V37.027c.673.268 1.4.423 2.167.423.765 0 1.494-.15 2.165-.418v22.432h-4.332zM19.85 27.8a3.809 3.809 0 0 1 3.808 3.798 3.808 3.808 0 0 1-7.617 0 3.81 3.81 0 0 1 3.809-3.798zM3.697 59.464V44.98a5.8 5.8 0 0 0 4.333 0v14.484H3.697zm2.167-23.716a3.808 3.808 0 0 1 3.807 3.8 3.808 3.808 0 0 1-7.616 0 3.81 3.81 0 0 1 3.81-3.8zM67.668 5.851C67.668 2.625 65.036 0 61.803 0c-3.232 0-5.863 2.625-5.863 5.85 0 1.572.628 2.998 1.641 4.05v.014L50.37 19.84a5.84 5.84 0 0 0-2.551-.59 5.85 5.85 0 0 0-3.796 1.397l-5.085-4.182c.482-.85.76-1.827.76-2.87 0-3.226-2.632-5.851-5.864-5.851-3.234 0-5.865 2.625-5.865 5.85a5.82 5.82 0 0 0 1.521 3.919l-6.92 8.909a5.82 5.82 0 0 0-2.721-.675c-3.233 0-5.864 2.625-5.864 5.851 0 .686.125 1.344.344 1.958l-3.962 2.253a5.856 5.856 0 0 0-4.503-2.113C2.63 33.696 0 36.323 0 39.548a5.82 5.82 0 0 0 1.642 4.05V60.49c0 .565.46 1.025 1.028 1.025h6.387c.567 0 1.028-.46 1.028-1.025V43.599a5.82 5.82 0 0 0 1.642-4.051 5.82 5.82 0 0 0-.345-1.958l3.962-2.251c.09.109.187.204.283.305V60.49c0 .565.46 1.025 1.028 1.025h6.387c.568 0 1.028-.46 1.028-1.025V35.65a5.818 5.818 0 0 0 1.642-4.052 5.817 5.817 0 0 0-1.52-3.917l5.42-6.978V60.49c0 .565.46 1.025 1.027 1.025h6.388c.568 0 1.027-.46 1.027-1.025V18.399l4.66 3.833a5.798 5.798 0 0 0-.758 2.87 5.82 5.82 0 0 0 1.64 4.049V60.49c0 .565.461 1.025 1.028 1.025h6.389c.567 0 1.028-.46 1.028-1.025V29.152a5.819 5.819 0 0 0-.006-8.108l5.546-7.634v47.08c0 .565.461 1.025 1.03 1.025h6.387c.567 0 1.027-.46 1.027-1.025V9.9a5.817 5.817 0 0 0 1.643-4.05z" fill="#2F3034" mask="url(#b)"/>
        </g>
        <path d="M65.413 66.44h-62.3c-.566 0-1.027.425-1.027.948 0 .521.46.945 1.027.945h62.3c.567 0 1.028-.424 1.028-.945 0-.523-.461-.947-1.028-.947" fill="#2F3034"/>
    </g>
</svg>
