<svg width="72" height="72" xmlns="http://www.w3.org/2000/svg">
    <path d="M57.643 38.162c-1.233-1.231-3.721-2.128-5.581-2.555a1.106 1.106 0 0 1-.88-1.096v-.585A6.143 6.143 0 0 0 53.509 30c1.916-4.408.842-7.051-.4-8.49-2-2.323-5.52-2.853-7.962-2.184-1.48.404-2.484 1.236-2.79 2.322h-.094a2.592 2.592 0 0 0-1.86.957 7.382 7.382 0 0 0-1.628-.655 11.846 11.846 0 0 0-7.725.665 2.117 2.117 0 0 0-1.907-1.078c-.349-1.022-1.335-1.816-2.79-2.21-2.442-.67-5.959-.131-7.963 2.182-1.247 1.44-2.326 4.083-.4 8.49a6.143 6.143 0 0 0 2.325 3.926v.585c.007.528-.361.987-.879 1.096-1.897.427-4.362 1.324-5.58 2.555-1.173 1.147-1.163 1.876-1.145 2.986v.465h1.395v-.493c0-.984 0-1.25.712-1.978 1.023-1.022 3.288-1.812 4.916-2.179.093-.024.185-.053.274-.088a5.535 5.535 0 0 0 7.554.571 8.36 8.36 0 0 0 3.06 4.561v.957a1.821 1.821 0 0 1-1.447 1.812c-2.623.59-6.046 1.82-7.71 3.506-1.54 1.524-1.503 2.504-1.48 3.972v.664h1.395v-.687c0-1.394-.032-1.858 1.08-2.978 1.478-1.477 4.71-2.61 7.032-3.13a3.32 3.32 0 0 0 .53-.168 7.51 7.51 0 0 0 11.292 0c.175.073.355.13.54.172 2.325.52 5.553 1.654 7.032 3.13 1.107 1.139 1.098 1.603 1.074 2.997v.687h1.396v-.664c.023-1.482.041-2.462-1.489-3.985-1.688-1.686-5.088-2.917-7.71-3.507a1.821 1.821 0 0 1-1.447-1.82V41.96a8.36 8.36 0 0 0 3.037-4.645 5.554 5.554 0 0 0 7.716-.464c.09.034.18.064.274.088 1.628.367 3.893 1.157 4.916 2.178.73.73.726.994.712 1.979v.492h1.395v-.464c.023-1.087.032-1.816-1.116-2.963zm-5.48-9.086a4.745 4.745 0 0 1-2.114 3.958 4.759 4.759 0 0 1-4.47.432c.628-1.903.667-3.95.11-5.876 1.968.404 4.187.051 5.414-1.505.219.06.74.465 1.06 1.798v1.193zm-9.734-6.038c.373-.056 1.07-.158 1.196-.868.125-.711.795-1.194 1.86-1.487 1.967-.538 4.93-.106 6.535 1.751a4.933 4.933 0 0 1 1.065 3.874c-.596-1.235-1.396-1.528-1.786-1.593a1.215 1.215 0 0 0-1.247.464c-.967 1.26-3.372 1.529-5.371.632a2.709 2.709 0 0 0-2.121-.748h-.028a3.64 3.64 0 0 0-1.005-1.635c.232-.252.56-.397.902-.4v.01zm-4.036.265c1.604.437 2.627 1.277 2.813 2.322.154.869.991.855 1.354.855.63-.095 1.245.25 1.493.836.567.985 1.088 3.637-.056 6.475v-.116a6.691 6.691 0 0 0-2.46-4.301 2.584 2.584 0 0 0-2.265-.548.697.697 0 0 0-.41.32 3.903 3.903 0 0 1-3.162 1.96 4.355 4.355 0 0 1-3.721-1.886.698.698 0 0 0-.368-.255h.047a1.593 1.593 0 0 0-1.395 0c-.93.427-1.8 1.756-2.6 4.055-.68-2.926-.242-5.37 1.307-7.158 2.302-2.722 6.58-3.335 9.423-2.568v.009zm-18.934-.883c1.609-1.857 4.567-2.29 6.534-1.75 1.065.292 1.744.835 1.86 1.486.123.523.633.861 1.163.77a.777.777 0 0 1 .796.35 8.731 8.731 0 0 0-1.926 1.643l-.028.033c-2.004 1.105-5.172 1.175-6.372-.4a1.088 1.088 0 0 0-1.05-.631c-.596.05-1.168.543-2.02 2.582-.222-1.653.112-3.047 1.043-4.083zm-.14 6.652v-1.017c.292-.882.682-1.728 1.163-2.523 1.34 1.603 3.907 1.942 6.162 1.394-.683 1.551-.995 3.637-.362 6.372a4.75 4.75 0 0 1-4.686-.124 4.736 4.736 0 0 1-2.29-4.084l.013-.018zm1.86 6.967c.297-.382.476-.842.517-1.324a6.081 6.081 0 0 0 4.972-.097c.134.422.297.864.465 1.314a4.146 4.146 0 0 1-5.967.107h.013zm18.99 9.113a6.11 6.11 0 0 1-9 0 3.249 3.249 0 0 0 .847-2.188v-.107a8.26 8.26 0 0 0 7.288-.027v.134c.005.812.314 1.592.865 2.188zm-4.53-2.857c-3.853 0-6.976-3.119-6.976-6.967v-1.036c1.042-3.358 1.893-3.975 2.13-4.082a.251.251 0 0 1 .135-.028 5.668 5.668 0 0 0 4.809 2.28 5.29 5.29 0 0 0 4.107-2.354c.302.038.587.16.823.353.981.724 1.897 2.36 1.916 3.427v1.459c-.01 3.828-3.11 6.93-6.944 6.948zm8.758-6.298c.252-.4.479-.816.679-1.245a6.147 6.147 0 0 0 4.716-.028c.04.482.22.942.516 1.324a4.142 4.142 0 0 1-5.911-.05z" fill="#009A93" fill-rule="nonzero"/>
</svg>
