<svg width="72" height="72" xmlns="http://www.w3.org/2000/svg">
    <g fill="#009A93" fill-rule="nonzero">
        <path d="M46.962 31.694h-3.683a9.134 9.134 0 0 0-3.96-3.236v-3.292H42.9a3.587 3.587 0 0 0 3.583-3.583A3.587 3.587 0 0 0 42.9 18H28.57a3.587 3.587 0 0 0-3.583 3.583 3.587 3.587 0 0 0 3.583 3.583h3.582v3.292a9.134 9.134 0 0 0-3.96 3.236h-5.673V30.5a3.587 3.587 0 0 0-3.583-3.583H17.74v-1.194a1.194 1.194 0 0 0-2.388 0v22.293a1.194 1.194 0 0 0 2.388 0v-1.194h1.195a3.587 3.587 0 0 0 3.583-3.583v-1.194h5.673a9.184 9.184 0 0 0 7.543 3.98 9.184 9.184 0 0 0 7.544-3.98h2.488v4.379c0 .66.535 1.194 1.195 1.194h7.961c.66 0 1.195-.535 1.195-1.194V40.85c0-5.05-4.108-9.157-9.156-9.157zM20.13 43.24c0 .659-.536 1.194-1.194 1.194H17.74V29.306h1.195c.658 0 1.194.536 1.194 1.194v12.74zm8.44-20.462a1.196 1.196 0 0 1-1.195-1.194c0-.659.536-1.194 1.195-1.194H42.9c.658 0 1.194.535 1.194 1.194 0 .658-.536 1.194-1.194 1.194H28.57zM53.73 45.23h-5.574v-4.38c0-.659-.535-1.194-1.194-1.194h-4.34c-.427 0-.82.227-1.034.596a6.789 6.789 0 0 1-5.853 3.385 6.789 6.789 0 0 1-5.853-3.385 1.194 1.194 0 0 0-1.033-.596h-6.33v-5.573h6.33c.426 0 .82-.227 1.033-.596a6.76 6.76 0 0 1 3.825-3.06c.496-.157.834-.618.834-1.14v-4.121h2.389v4.122c0 .52.337.981.834 1.139a6.76 6.76 0 0 1 3.824 3.06c.214.369.607.596 1.034.596h4.34a6.775 6.775 0 0 1 6.767 6.767v4.38zM50.942 50.007c-.339 0-.662.144-.888.396-.632.705-2.694 3.13-2.694 4.779a3.587 3.587 0 0 0 3.582 3.583 3.587 3.587 0 0 0 3.583-3.583c0-1.648-2.062-4.074-2.694-4.779a1.195 1.195 0 0 0-.889-.396zm0 6.37a1.195 1.195 0 0 1-1.194-1.193c.013-.334.519-1.198 1.195-2.1.675.9 1.18 1.763 1.194 2.1-.001.657-.536 1.192-1.195 1.192z"/>
    </g>
</svg>
