<svg width="32" height="32" xmlns="http://www.w3.org/2000/svg">
    <g fill="none" fill-rule="evenodd">
        <g fill="#1E1E1E">
            <path d="m25.751 27.449-7.979-7.98 1.697-1.698 7.98 7.98z"/>
            <path d="M13.3 6.52a6.788 6.788 0 0 0-6.78 6.78 6.788 6.788 0 0 0 6.78 6.78 6.788 6.788 0 0 0 6.78-6.78 6.788 6.788 0 0 0-6.78-6.78m0 15.96c-5.062 0-9.181-4.118-9.181-9.18 0-5.062 4.119-9.18 9.181-9.18 5.062 0 9.181 4.118 9.181 9.18 0 5.062-4.119 9.18-9.181 9.18"/>
        </g>
    </g>
</svg>
