<svg xmlns="http://www.w3.org/2000/svg" width="13" height="13" viewBox="0 0 13 13">
    <g fill="none" fill-opacity=".696" fill-rule="evenodd">
        <g fill="#ADADAD" fill-rule="nonzero">
            <g>
                <g>
                    <path d="M5.917 11.834c.812 0 1.575-.155 2.29-.465.713-.31 1.343-.738 1.886-1.282.544-.544.97-1.172 1.279-1.884.308-.712.462-1.474.462-2.286 0-.811-.154-1.573-.462-2.286-.309-.712-.736-1.341-1.282-1.887S8.914.771 8.2.463C7.486.154 6.723 0 5.911 0 5.108 0 4.35.154 3.634.463c-.714.308-1.344.735-1.89 1.281C1.198 2.29.771 2.92.463 3.631.154 4.344 0 5.106 0 5.917c0 .812.155 1.574.466 2.286.31.712.737 1.34 1.281 1.884.544.544 1.173.971 1.887 1.282.715.31 1.476.465 2.283.465zm0-1.09c-.665 0-1.29-.124-1.875-.374-.584-.25-1.097-.594-1.537-1.035-.44-.44-.784-.952-1.032-1.537-.247-.584-.371-1.211-.371-1.88 0-.666.124-1.291.371-1.876.248-.584.592-1.098 1.032-1.54.44-.442.952-.788 1.534-1.038.583-.25 1.207-.374 1.872-.374.674 0 1.302.124 1.884.374.583.25 1.095.596 1.537 1.038.443.442.789.956 1.038 1.54.25.585.375 1.21.375 1.875.004.67-.12 1.297-.372 1.881-.251.585-.596 1.097-1.034 1.537-.439.44-.95.786-1.535 1.035-.584.25-1.213.375-1.887.375zm-.006-4.151c.126 0 .23-.042.314-.125.083-.083.124-.186.124-.307V2.338c0-.118-.041-.218-.124-.302-.084-.083-.188-.124-.314-.124-.118 0-.218.041-.301.124-.083.084-.125.184-.125.302v3.39h-2.52c-.122 0-.225.042-.308.125-.083.084-.125.186-.125.308 0 .121.042.224.125.307.083.083.186.125.308.125H5.91z" transform="translate(-675.000000, -294.000000) translate(525.000000, 261.000000) translate(150.991885, 33.286572)"/>
                </g>
            </g>
        </g>
    </g>
</svg>
