<svg xmlns="http://www.w3.org/2000/svg" width="23" height="23" viewBox="0 0 23 23">
    <g fill="none" fill-rule="evenodd">
        <g>
            <g transform="translate(-185.000000, -730.000000) translate(185.000000, 730.000000)">
                <rect width="22" height="22" x=".5" y=".5" fill="#BED1B8" stroke="#93A48E" rx="3"/>
                <path fill="#FFF" fill-rule="nonzero" d="M6.153 16.253c.093 0 .167-.01.221-.031.054-.021.118-.062.193-.123l.445-.34.099.084c.105.078.22.126.344.144.166.023.338 0 .516-.07l2.197-.92c.08-.033.145-.066.196-.098.052-.033.106-.078.162-.134l6.387-6.345c.314-.313.468-.647.463-1-.004-.353-.166-.692-.484-1.014L15.474 4.98c-.318-.323-.654-.486-1.007-.488-.353-.002-.69.153-1.007.467l-6.388 6.33c-.051.057-.094.108-.13.155-.035.047-.07.113-.108.197l-.927 2.204c-.075.173-.1.343-.077.509.018.124.065.24.143.348l.063.076-.936.983c-.098.108-.127.216-.088.326.04.11.14.165.299.165h.842zm9.474-8.074L13.7 6.24l.47-.466c.196-.192.383-.197.561-.014l1.376 1.39c.182.182.178.372-.014.568l-.465.461zm-5.526 5.492l-1.925-1.945 4.85-4.817 1.93 1.939L10.1 13.67zm-2.425 1.164c-.051-.004-.108-.04-.168-.105l-.429-.428c-.093-.094-.112-.204-.056-.33l.612-1.441 1.663 1.67-1.454.606c-.06.024-.117.033-.168.028zm10.17 3.777c.15 0 .28-.055.39-.165.11-.11.165-.242.165-.397 0-.154-.055-.286-.165-.396-.11-.11-.24-.165-.39-.165H5.129c-.154 0-.286.056-.396.168-.11.112-.165.243-.165.393 0 .155.055.287.165.397.11.11.242.165.396.165h12.719z"/>
            </g>
        </g>
    </g>
</svg>
