<svg xmlns="http://www.w3.org/2000/svg" width="10" height="10" viewBox="0 0 10 10">
    <g fill="none" fill-rule="evenodd">
        <g fill="#FFF" fill-rule="nonzero">
            <g>
                <g>
                    <path d="M4.28 11.307c.065 0 .117-.008.154-.022.038-.015.082-.043.134-.086l.31-.236.069.058c.073.055.152.088.239.1.116.016.235 0 .359-.049l1.528-.64c.056-.022.101-.045.137-.068.036-.023.073-.053.112-.093l4.444-4.414c.218-.218.325-.45.322-.695-.003-.246-.116-.481-.337-.706l-.986-.991c-.222-.225-.455-.338-.701-.34-.246-.001-.48.107-.7.325L4.92 7.854c-.036.04-.066.075-.09.108-.025.032-.05.078-.076.137l-.645 1.533c-.052.12-.07.238-.053.354.012.087.045.167.1.242l.043.053-.651.684c-.069.075-.089.15-.061.227.027.076.097.115.207.115h.586zm6.591-5.617L9.53 4.341l.326-.324c.137-.134.267-.137.391-.01l.957.967c.127.127.124.258-.01.395l-.323.321zM7.027 9.51L5.688 8.157l3.374-3.351 1.342 1.349L7.027 9.51zm-1.687.81c-.036-.003-.075-.027-.117-.073l-.298-.298c-.065-.065-.078-.141-.04-.23l.426-1.002 1.157 1.162-1.011.422c-.042.016-.081.023-.117.02zm7.075 2.627c.104 0 .195-.038.271-.114.077-.077.115-.169.115-.276 0-.108-.038-.2-.115-.276-.076-.077-.167-.115-.271-.115H3.567c-.107 0-.199.04-.275.117-.077.078-.115.17-.115.274 0 .107.038.199.115.276.076.076.168.114.275.114h8.848z" transform="translate(-771.000000, -382.000000) translate(525.000000, 348.000000) translate(243.000000, 31.000000)"/>
                </g>
            </g>
        </g>
    </g>
</svg>
