<svg xmlns="http://www.w3.org/2000/svg" width="31" height="31" viewBox="0 0 31 31">
    <g fill="none" fill-rule="evenodd">
        <g>
            <g transform="translate(-322 -756) translate(322 756)">
                <rect width="31" height="31" fill="#2D6B00" rx="4"/>
                <g fill="#FFF" fill-rule="nonzero" opacity=".7">
                    <g>
                        <path d="M4.096 7.44H2.99c-.182 0-.332-.14-.332-.31V6.097c0-.17.15-.31.332-.31h1.107c.183 0 .333.14.333.31V7.13c0 .17-.15.31-.333.31zm2.99-.31V6.097c0-.17-.15-.31-.332-.31H5.646c-.182 0-.332.14-.332.31V7.13c0 .17.15.31.332.31h1.108c.182 0 .332-.14.332-.31zm2.657 0V6.097c0-.17-.15-.31-.332-.31H8.304c-.183 0-.333.14-.333.31V7.13c0 .17.15.31.333.31H9.41c.182 0 .332-.14.332-.31zM7.086 9.61V8.577c0-.17-.15-.31-.332-.31H5.646c-.182 0-.332.14-.332.31V9.61c0 .17.15.31.332.31h1.108c.182 0 .332-.14.332-.31zm-2.657 0V8.577c0-.17-.15-.31-.333-.31H2.99c-.182 0-.332.14-.332.31V9.61c0 .17.15.31.332.31h1.107c.183 0 .333-.14.333-.31zm5.314 0V8.577c0-.17-.15-.31-.332-.31H8.304c-.183 0-.333.14-.333.31V9.61c0 .17.15.31.333.31H9.41c.182 0 .332-.14.332-.31zM12.4 2.893v9.094c0 .684-.595 1.24-1.329 1.24H1.33C.595 13.227 0 12.67 0 11.987V2.893c0-.684.595-1.24 1.329-1.24h1.328V.31c0-.17.15-.31.332-.31h1.107c.183 0 .333.14.333.31v1.343H7.97V.31c0-.17.15-.31.333-.31H9.41c.182 0 .332.14.332.31v1.343h1.328c.734 0 1.329.556 1.329 1.24zm-1.329 8.939V4.133H1.33v7.699c0 .085.074.155.166.155h9.41c.092 0 .166-.07.166-.155z" transform="translate(9.472 8.611)"/>
                    </g>
                </g>
            </g>
        </g>
    </g>
</svg>
