<svg width="20" height="20" xmlns="http://www.w3.org/2000/svg">
    <g fill="none" fill-rule="evenodd">
        <path d="M17.948 5.464a6.406 6.406 0 0 1-1.867.509 3.18 3.18 0 0 0 1.425-1.81 6.317 6.317 0 0 1-2.058.793c-.642-.69-1.432-1.036-2.369-1.036-.897 0-1.661.32-2.294.96a3.183 3.183 0 0 0-.948 2.322c0 .244.026.495.08.752a8.949 8.949 0 0 1-3.73-1.01 9.215 9.215 0 0 1-2.956-2.425 3.246 3.246 0 0 0-.441 1.657c0 .562.13 1.084.391 1.565.261.48.613.87 1.054 1.168a3.187 3.187 0 0 1-1.465-.416v.04c0 .793.246 1.49.738 2.089.491.6 1.112.977 1.862 1.133a3.318 3.318 0 0 1-.854.112c-.187 0-.391-.017-.612-.05a3.21 3.21 0 0 0 1.144 1.62 3.137 3.137 0 0 0 1.888.656 6.3 6.3 0 0 1-4.026 1.402c-.287 0-.548-.013-.783-.04a8.924 8.924 0 0 0 4.98 1.473 9.372 9.372 0 0 0 3.242-.554c1.01-.37 1.873-.864 2.59-1.484a9.888 9.888 0 0 0 1.852-2.14 9.59 9.59 0 0 0 1.159-2.524 9.433 9.433 0 0 0 .371-3.065 6.836 6.836 0 0 0 1.627-1.697z" fill="#FFF"/>
        <path d="M0 0h20v20H0z"/>
    </g>
</svg>
