<svg width="72" height="72" xmlns="http://www.w3.org/2000/svg">
    <g fill="#009A93" fill-rule="nonzero">
        <path d="m56.068 32.785-1.72-4.125a.65.65 0 0 0-.935-.308c-.01.005-.805.468-1.786.556a10.805 10.805 0 0 0-2.672-2.377c-.025-.984.346-1.825.35-1.833a.648.648 0 0 0-.413-.892l-4.304-1.23a.67.67 0 0 0-.535.08.653.653 0 0 0-.29.458 4.766 4.766 0 0 1-.677 1.74c-.693.003-1.38.095-2.06.23v-.657a.651.651 0 0 0-.65-.65h-2.339v-2.585l.732-.755c.285.141.595.237.934.237a2.137 2.137 0 0 0 2.137-2.13 2.137 2.137 0 0 0-4.272 0c0 .361.113.686.273.984l-.921.95a.652.652 0 0 0-.184.452v2.848h-3.719v-2.586l.734-.755c.285.14.594.237.933.237a2.137 2.137 0 0 0 2.137-2.13 2.137 2.137 0 0 0-4.272 0c0 .36.114.685.274.984l-.923.95a.649.649 0 0 0-.184.452v2.848h-3.717v-2.586l.734-.755c.285.141.594.237.933.237a2.137 2.137 0 0 0 2.135-2.13 2.137 2.137 0 0 0-2.135-2.132 2.137 2.137 0 0 0-2.135 2.132c0 .361.114.686.274.984l-.924.95a.649.649 0 0 0-.184.451v2.849h-2.245a.651.651 0 0 0-.65.649v6.674h-3.128l-.758-.732c.14-.284.237-.592.237-.93a2.137 2.137 0 0 0-2.135-2.132 2.137 2.137 0 0 0-2.136 2.132c0 1.174.96 2.13 2.136 2.13.362 0 .688-.113.987-.273l.953.92c.12.117.284.184.452.184h3.391v3.71h-3.127l-.664-.642c.173-.308.299-.645.299-1.022a2.137 2.137 0 0 0-4.273 0c0 1.174.96 2.13 2.137 2.13.323 0 .621-.083.896-.211l.889.86c.12.117.284.183.452.183h3.391v3.709h-3.127l-.665-.642c.174-.308.3-.644.3-1.022a2.137 2.137 0 0 0-4.273 0c0 1.174.96 2.13 2.137 2.13.322 0 .62-.082.895-.21l.89.859c.12.117.284.183.452.183h3.391v4.613c0 .358.292.65.651.65h2.806v3.13l-.733.755a2.088 2.088 0 0 0-.933-.237 2.137 2.137 0 0 0-2.137 2.132 2.137 2.137 0 0 0 4.272 0c0-.362-.114-.687-.274-.986l.922-.95a.649.649 0 0 0 .184-.451v-3.393h3.718v3.13l-.733.755a2.088 2.088 0 0 0-.934-.237 2.137 2.137 0 0 0-2.136 2.132 2.137 2.137 0 0 0 4.272 0c0-.362-.114-.687-.274-.986l.923-.95a.649.649 0 0 0 .184-.451v-3.393h3.717v3.13l-.802.826c-.312-.179-.654-.308-1.038-.308a2.137 2.137 0 0 0-2.135 2.132c0 1.174.959 2.13 2.135 2.13a2.137 2.137 0 0 0 2.135-2.13c0-.316-.079-.61-.203-.88l1.026-1.056a.649.649 0 0 0 .184-.451v-3.393h1.778c.359 0 .65-.292.65-.65v-.653c.292.057.576.136.874.17.446.874.476 1.785.478 1.795a.652.652 0 0 0 .759.624l4.413-.754a.648.648 0 0 0 .51-.84c-.003-.01-.28-.882-.148-1.856a10.87 10.87 0 0 0 2.923-2.077 4.783 4.783 0 0 1 1.71.748.655.655 0 0 0 .962-.204l2.16-3.913a.652.652 0 0 0-.34-.92c-.01-.005-.868-.335-1.55-1.048.265-1.181.332-2.379.198-3.57a4.76 4.76 0 0 1 1.653-.868.655.655 0 0 0 .42-.34.644.644 0 0 0 .02-.537zM39.703 17.71c.46 0 .835.374.835.833a.834.834 0 0 1-1.669 0c0-.46.373-.833.834-.833zm-5.019 0c.46 0 .835.374.835.833a.834.834 0 0 1-1.668 0c0-.46.373-.833.833-.833zm-5.018 0a.832.832 0 1 1 .002 1.665.832.832 0 0 1-.002-1.665zM17.184 29.439a.834.834 0 0 1 1.667 0 .832.832 0 0 1-1.667 0zm.154 5.007a.835.835 0 0 1 1.669 0 .834.834 0 0 1-1.669 0zm0 5.007a.834.834 0 0 1 1.669 0 .834.834 0 0 1-1.669 0zm8.254 14.837a.834.834 0 0 1-.835-.832.835.835 0 0 1 1.669 0c0 .46-.373.832-.834.832zm5.019 0a.834.834 0 0 1-.836-.832.835.835 0 0 1 1.669 0c0 .46-.373.832-.833.832zm4.845 0a.832.832 0 1 1-.002-1.665.832.832 0 0 1 .002 1.665zm5.57-23.267c1.115-.52 2.359-.644 3.55-.302 2.7.773 4.267 3.592 3.492 6.285-.772 2.691-3.593 4.253-6.298 3.485-.26-.074-.5-.194-.743-.307v-9.161zm-1.301 15.356H25.103V25.077h14.622v21.302zm13.104-12.56a.641.641 0 0 0-.184.551 9.493 9.493 0 0 1-.21 3.743.65.65 0 0 0 .123.567c.52.648 1.165 1.09 1.64 1.36l-1.5 2.716c-.48-.258-1.196-.562-2.02-.657a.646.646 0 0 0-.548.2 9.592 9.592 0 0 1-3.066 2.177.65.65 0 0 0-.368.452c-.18.806-.125 1.58-.04 2.118l-3.064.524c-.096-.535-.303-1.28-.741-1.98a.651.651 0 0 0-.497-.303c-.453-.038-.89-.138-1.327-.236v-3.47c.131.046.25.12.384.158a6.372 6.372 0 0 0 4.863-.554 6.332 6.332 0 0 0 3.045-3.821c.972-3.38-.996-6.92-4.383-7.892a6.365 6.365 0 0 0-3.91.143v-3.207a9.563 9.563 0 0 1 2.371-.254c.218.057.4-.084.527-.244.518-.651.807-1.375.962-1.9l2.99.856c-.146.526-.286 1.292-.192 2.118.023.202.14.383.317.486a9.534 9.534 0 0 1 2.8 2.492c.123.163.315.26.52.26h.001c.832-.004 1.582-.23 2.088-.435l1.194 2.864c-.502.214-1.187.583-1.775 1.168z"/>
        <path d="M25.92 32.346v6.403c0 .357.291.649.65.649h11.594c.359 0 .651-.292.651-.65v-6.402a.651.651 0 0 0-.65-.65H26.57a.651.651 0 0 0-.65.65zm1.301.65h10.292v5.103H27.221v-5.104z"/>
        <path d="M35.392 35.078h-6.05a.651.651 0 0 0-.65.65c0 .358.291.65.65.65h6.05c.36 0 .651-.292.651-.65a.651.651 0 0 0-.65-.65z"/>
    </g>
</svg>
