<svg width="72" height="72" xmlns="http://www.w3.org/2000/svg">
    <path d="M41.005 15.882c2.64 5.726 8.988.966 12.297 4.412-.77-5.927-5.92-1.151-12.297-4.412zm7.027 6.177c-.492.004-.867.485-.878.882v11.154l-4.392 2.371v-4.701c.009-.605-.74-1.074-1.276-.8l-11.02 5.542v-4.742c.008-.605-.74-1.074-1.277-.8l-12.297 6.177a.903.903 0 0 0-.48.8v16.764c0 .462.418.882.878.882h36.89c.46 0 .879-.42.879-.882V22.94c0-.462-.419-.882-.879-.882h-6.148zm.878 1.765h4.392v30H18.17V38.493l10.54-5.294v4.742c0 .6.744 1.058 1.276.786l11.02-5.528v4.742c.006.603.76 1.055 1.29.772l6.149-3.309a.902.902 0 0 0 .466-.772V23.824zm-26.789 18.97c-.46 0-.878.42-.878.882v4.412c0 .462.418.883.878.883h6.149c.46 0 .878-.42.878-.883v-4.412c0-.462-.419-.882-.878-.882H22.12zm10.54 0c-.46 0-.878.42-.878.882v4.412c0 .462.418.883.878.883h6.149c.46 0 .878-.42.878-.883v-4.412c0-.462-.419-.882-.878-.882H32.66zm10.54 0c-.46 0-.878.42-.878.882v4.412c0 .462.418.883.878.883h6.149c.46 0 .878-.42.878-.883v-4.412c0-.462-.418-.882-.878-.882H43.2zM23 44.56h4.392v2.647H23v-2.647zm10.54 0h4.392v2.647H33.54v-2.647zm10.54 0h4.392v2.647H44.08v-2.647z" fill="#009A93" fill-rule="nonzero"/>
</svg>
