<svg width="72" height="72" xmlns="http://www.w3.org/2000/svg">
    <path d="M52.003 46.365v-1.806c0-3.057-1.817-5.767-4.612-7.017l-6.15-2.71c1.048-1.111 1.677-2.64 1.677-4.168l1.678-.834c.698-.347 1.188-1.042 1.188-1.876v-.486c0-1.181-.909-2.084-2.097-2.084h-.699V20.52c0-1.945-1.537-3.473-3.494-3.473h-.35c-.908 0-1.816-.348-2.445-1.042l-1.188-1.181-3.983 1.32c-.49.138-.979.416-1.398.694l-.56.417c-1.327.973-2.026 2.432-2.026 3.96v4.169h-.699c-1.188 0-2.096.903-2.096 2.084v.556c0 .764.42 1.528 1.188 1.875l1.677.834c0 1.529.63 2.988 1.677 4.169l-6.15 2.71c-2.795 1.25-4.612 3.96-4.612 7.016v12.02h32.845c1.188 0 2.097-.904 2.097-2.085V48.31c-.07-.903-.63-1.667-1.468-1.945zm-9.085-19.592h.7c.418 0 .698.278.698.695v.556c0 .278-.14.486-.42.625l-.978.486v-2.362zm-15.374 2.362-.978-.486c-.21-.139-.42-.347-.42-.625v-.556c0-.417.28-.695.7-.695h.698v2.362zm15.724 8.129-3.215 3.196-3.284-2.78c.35-.138.629-.277.908-.416l2.097-1.25c.07 0 .07-.07.14-.14l3.354 1.39zM28.942 21.215c0-1.111.49-2.154 1.398-2.779l.559-.417c.28-.208.629-.416.978-.486l3.145-1.042.559.556a4.99 4.99 0 0 0 3.494 1.459h.35c1.187 0 2.096.903 2.096 2.084v2.918c-.21-.07-.49-.14-.7-.14H36.42a3.05 3.05 0 0 1-2.446-1.25l-.21-.208c-.698-.903-1.886-1.112-2.864-.486l-1.957 1.25v-1.459zm1.467 14.59c.07 0 .07.07.14.139l2.097 1.25c.28.209.629.348.908.417l-3.284 2.78-3.215-3.197 3.354-1.39zm4.123 19.453h-7.687v-7.643h-1.397v7.643h-5.59V44.489a6.145 6.145 0 0 1 3.773-5.697l2.166-.972 4.473 4.446 4.262-3.613v16.605zm-1.118-19.245-2.096-1.25c-1.468-.904-2.376-2.432-2.376-4.169v-5.836c0-.208.14-.416.28-.555l2.445-1.668c.28-.208.7-.139.979.14l.21.208c.838 1.111 2.166 1.736 3.563 1.806h4.403c.42 0 .699.278.699.695v5.21c0 1.737-.909 3.265-2.376 4.169l-2.097 1.25a3.428 3.428 0 0 1-3.634 0zm6.15 19.245H35.93V38.723l4.263 3.612 4.472-4.446 2.167.973c2.306.972 3.773 3.265 3.773 5.697v1.667h-1.397v-.695c0-1.18-.909-2.084-2.097-2.084h-1.397c-1.188 0-2.097.903-2.097 2.084v.695h-2.096c-1.188 0-2.097.903-2.097 2.084v6.253c0 .208.07.486.14.695zm8.246-9.727v.695h-2.795v-.695c0-.417.28-.695.699-.695h1.397c.42 0 .7.278.7.695zm4.193 9.032c0 .417-.28.695-.699.695h-9.783c-.42 0-.7-.278-.7-.695v-3.474h4.893v1.39h1.397v-1.39h4.892v3.474zm0-4.863H40.822v-1.39c0-.417.28-.695.699-.695h9.783c.42 0 .7.278.7.695v1.39z" fill="#009A93" fill-rule="nonzero"/>
</svg>
