<svg width="72" height="72" xmlns="http://www.w3.org/2000/svg">
    <g transform="translate(15.353 17.47)" fill="#00739A" fill-rule="nonzero">
        <path d="M40.393 20.56a.686.686 0 0 0 .291-.93.686.686 0 0 0-.925-.293l-7.491 3.928V21.91l8.125-4.258a.686.686 0 0 0 .291-.93.681.681 0 0 0-.925-.29l-7.491 3.924v-1.28l8.125-4.258a.67.67 0 0 0 .37-.619.697.697 0 0 0-.389-.614L27.79 7.475a.688.688 0 0 0-.597 0L.384 20.653a.681.681 0 0 0-.384.619.7.7 0 0 0 .384.619l13.4 6.543a.638.638 0 0 0 .615-.01l8.648-4.527v1.284l-8.972 4.7L.981 23.484a.685.685 0 0 0-.912.317.687.687 0 0 0 .32.917l13.4 6.552a.688.688 0 0 0 .3.066.744.744 0 0 0 .315-.075l8.647-4.537v1.354l-8.971 4.7-13.094-6.39a.68.68 0 0 0-.917.322.69.69 0 0 0 .32.916l13.4 6.544a.638.638 0 0 0 .615-.01l8.647-4.528v1.261l-8.971 4.7L.986 29.204a.69.69 0 0 0-.597 1.243l13.4 6.543c.096.056.198.07.3.07a.638.638 0 0 0 .315-.084l17.494-9.154 8.495-4.454a.68.68 0 0 0 .291-.926.683.683 0 0 0-.925-.293l-7.491 3.932v-1.27l8.125-4.25zm-12.9-11.704 11.058 5.376-7.023 3.676-11.188-5.533 7.153-3.519zM14.08 27.044l-11.827-5.78 8.481-4.166 11.484 5.683-8.138 4.263zm10.345-3.863 4.391-2.3a.691.691 0 0 0 .292-.925.678.678 0 0 0-.921-.293l-4.456 2.327-11.437-5.66 6.491-3.192 12.109 5.994v7.656l-6.469 3.392v-6.999zM12.247 9.215c5.53 0 9.703-1.983 9.703-4.608C21.95 1.983 17.781 0 12.247 0 6.718 0 2.55 1.983 2.55 4.607c0 2.625 4.17 4.608 9.698 4.608zm0-7.842c4.91 0 8.329 1.703 8.329 3.23 0 1.526-3.42 3.23-8.329 3.23-4.909 0-8.328-1.704-8.328-3.23 0-1.527 3.424-3.23 8.328-3.23z"/>
        <path d="M21.783 8.614a.69.69 0 0 0-.342-.912.687.687 0 0 0-.907.35c-.472 1.056-3.77 2.196-8.282 2.196-4.507 0-7.81-1.14-8.287-2.197a.682.682 0 0 0-.907-.344.683.683 0 0 0-.342.907c.93 2.067 5.594 3.011 9.536 3.011 3.942 0 8.61-.944 9.531-3.01z"/>
        <path d="M12.937 13.543a.685.685 0 0 0-.685-.689c-4.507 0-7.81-1.14-8.287-2.201-.157-.345-.564-.503-.907-.345a.688.688 0 0 0-.342.912c.93 2.067 5.594 3.012 9.536 3.012a.688.688 0 0 0 .685-.69zM7.99 16.182a.683.683 0 0 0 .676-.587.69.69 0 0 0-.574-.786c-2.877-.433-3.974-1.164-4.15-1.49a.684.684 0 0 0-.93-.274.688.688 0 0 0-.273.935c.694 1.275 3.183 1.894 5.15 2.192.032.005.065.01.102.01zM3.9 15.81a.681.681 0 0 0-.953-.178.69.69 0 0 0-.17.96c.374.548 1.248.986 2.669 1.33a.69.69 0 0 0 .324-1.34c-1.583-.387-1.856-.759-1.87-.773z"/>
        <ellipse transform="rotate(-112.575 21.464 17.645)" cx="21.464" cy="17.645" rx="1.19" ry="3.084"/>
    </g>
</svg>
