<svg width="72" height="72" xmlns="http://www.w3.org/2000/svg">
    <g fill="#009A93" fill-rule="nonzero">
        <path d="M31.928 44.523h-5.41l1.044-1.807 2.19 1.262a.916.916 0 0 0 1.33-1.08l-3.004-9.06a.73.73 0 0 0-.838-.483l-9.357 1.932h-.002a.915.915 0 0 0-.271 1.69l2.19 1.263-4.35 7.524a.726.726 0 0 0 .048.799l4.89 6.534c.01.012.024.017.033.028.05.057.108.105.172.144a.697.697 0 0 0 .07.048c.095.046.198.07.303.072l10.956.086h.006a.728.728 0 0 0 .728-.727v-7.497a.727.727 0 0 0-.728-.728zm-10.503-6.185a.727.727 0 0 0-.266-.994l-1.595-.92L26.9 34.91l2.355 7.102-1.595-.92a.727.727 0 0 0-.994.267l-5.772 9.984-3.942-5.267 4.474-7.738zM31.2 52.015l-8.973-.07 3.45-5.967H31.2v6.037zM56.118 44.421a.706.706 0 0 0-.053-.203.693.693 0 0 0-.033-.126l-5.404-9.519a.729.729 0 0 0-.998-.271l-6.5 3.749a.726.726 0 0 0-.265.996l2.734 4.676h-2.121v-2.526a.917.917 0 0 0-1.602-.608l-6.355 7.126a.728.728 0 0 0 0 .968l6.355 7.127a.91.91 0 0 0 1.01.247.909.909 0 0 0 .592-.856v-2.526h8.699a.728.728 0 0 0 .669-.44l3.221-7.498.05-.316zM44.49 38.945l5.232-3.017 4.425 7.795h-6.863l-2.794-4.778zm7.206 12.276H42.75a.727.727 0 0 0-.728.727v1.838L37.04 48.2l4.982-5.586v1.837a.727.727 0 0 0 .728.727h11.543l-2.596 6.044zM44.795 32.618a.728.728 0 0 0 .69-.499l3.002-9.058a.917.917 0 0 0-1.328-1.082l-2.19 1.262-4.35-7.524a.72.72 0 0 0-.716-.358l-8.112.963c-.015.001-.025.012-.04.014a.718.718 0 0 0-.252.097c-.015.01-.032.012-.047.023a.722.722 0 0 0-.203.22l-5.553 9.433a.727.727 0 0 0 .264.998l6.502 3.748a.728.728 0 0 0 .997-.272l2.675-4.72 1.072 1.854-2.19 1.264a.916.916 0 0 0 .273 1.69l9.358 1.932c.048.01.098.015.148.015zm-12.242-3.39-5.23-3.014 4.548-7.725 3.418 5.912-2.736 4.828zm4.417.305 1.595-.92a.727.727 0 0 0 .267-.993l-5.772-9.985 6.538-.775 4.473 7.738a.73.73 0 0 0 .995.266l1.594-.919-2.354 7.102-7.336-1.514z"/>
    </g>
</svg>
