<svg width="72" height="72" xmlns="http://www.w3.org/2000/svg">
    <g fill="#009A93" fill-rule="nonzero">
        <path d="M57.176 36.427c0-5.72-4.033-10.375-8.991-10.375-.266 0-.527.02-.787.047.057-.474.095-.951.095-1.43 0-5.72-4.033-10.375-8.991-10.375-4.958 0-8.992 4.654-8.992 10.375 0 4.994 3.075 9.173 7.154 10.155l-.634.952a1.756 1.756 0 0 0 1.459 2.726h1.013v18.674h1.383V40.411c1.128 3.116 3.536 5.467 6.462 6.171l-.634.952a1.756 1.756 0 0 0 1.459 2.726h.321v6.916h1.384V50.26h.321a1.756 1.756 0 0 0 1.459-2.726l-.634-.952c4.08-.982 7.153-5.16 7.153-10.155zM30.894 24.669c0-4.958 3.413-8.992 7.608-8.992s7.608 4.034 7.608 8.992c0 .577-.055 1.153-.147 1.717-3.088.911-5.538 3.662-6.415 7.184-.346.056-.696.09-1.046.09-4.195 0-7.608-4.033-7.608-8.991zm6.225 12.08c0-.074.021-.145.062-.206l.822-1.232a.598.598 0 0 1 .499-.267c.262 0 .525-.015.786-.041-.056.467-.094.94-.094 1.424 0 .234.017.462.03.692h-1.735a.37.37 0 0 1-.37-.37zm11.566 10.32.822 1.232a.371.371 0 0 1-.308.575h-2.027a.37.37 0 0 1-.308-.575l.822-1.232a.598.598 0 0 1 1 0zm-.5-1.65c-4.195 0-7.608-4.034-7.608-8.992 0-4.958 3.413-8.992 7.608-8.992s7.608 4.034 7.608 8.992c0 4.958-3.413 8.991-7.608 8.991z"/>
        <path d="m42.45 33.463 1.308.452c.78-2.256 2.518-3.713 4.427-3.713V28.82c-2.507 0-4.759 1.823-5.734 4.644zM41.96 36.427h1.383c0-.426.034-.851.101-1.265l-1.366-.221a9.395 9.395 0 0 0-.118 1.486zM32.277 24.669h1.383c0-.433.036-.863.103-1.28l-1.364-.225c-.08.49-.122.997-.122 1.505zM38.502 17.06c-2.487 0-4.731 1.802-5.717 4.593l1.304.46c.789-2.229 2.52-3.669 4.413-3.669v-1.383zM20.52 39.885h1.382v1.383H20.52zM26.052 39.885h1.383v1.383h-1.383zM27.363 44.344l-1.233-.627c-.022.041-.563 1.01-2.153 1.01s-2.13-.969-2.152-1.01l-1.233.627c.036.073.911 1.766 3.385 1.766 2.474 0 3.35-1.693 3.386-1.766z"/>
        <path d="m28.213 48.417-1.286-.285a6.244 6.244 0 0 0 3.13-4.152 2.77 2.77 0 0 0 2.22-2.711c0-.716-.28-1.363-.728-1.855.126-.335 1.512-4.212-.45-7.07-1.291-1.88-3.688-2.834-7.122-2.834-3.434 0-5.83.954-7.121 2.834-1.964 2.859-.576 6.736-.451 7.07a2.743 2.743 0 0 0-.728 1.855 2.77 2.77 0 0 0 2.221 2.71 6.242 6.242 0 0 0 3.13 4.153l-1.286.285a4.82 4.82 0 0 0-3.43 2.894l-2.018 4.329v1.536H33.66V55.64l-2.002-4.294a4.84 4.84 0 0 0-3.445-2.929zm-5.62.3c.446.1.908.16 1.384.16.476 0 .938-.06 1.384-.16v.505c-.245.146-.704.346-1.384.346-.682 0-1.141-.201-1.383-.345v-.507zm7.61-6.257v-2.382c.41.24.69.681.69 1.191s-.28.95-.69 1.19zm-12.204-9.338c1.02-1.479 3.03-2.228 5.978-2.228s4.96.75 5.978 2.228c1.327 1.925.665 4.634.392 5.523-.048-.015-.095-.032-.145-.045V37.12c0-1.196-.867-3.459-4.15-3.459-1.959 0-2.696 1.131-3.347 2.129-.708 1.085-1.32 2.021-3.57 2.021h-1.383v.79c-.049.013-.096.03-.145.045-.272-.89-.934-3.598.392-5.523zm-.938 8.147c0-.51.28-.952.691-1.192v2.382a1.377 1.377 0 0 1-.691-1.19zm2.075 1.383v-3.458c2.998 0 3.957-1.47 4.727-2.65.59-.903.98-1.5 2.19-1.5 2.651 0 2.762 1.868 2.766 2.075v5.533a4.848 4.848 0 0 1-4.842 4.841 4.848 4.848 0 0 1-4.841-4.841zm9.683 13.141v-3.458h-1.384v3.458H20.52v-3.458h-1.383v3.458h-3.387l1.832-3.934a3.453 3.453 0 0 1 2.46-2.09l1.17-.26v.346l.202.202c.092.092.94.895 2.564.895s2.473-.803 2.564-.895l.203-.202v-.347l1.169.26a3.476 3.476 0 0 1 2.476 2.127l1.816 3.898H28.82z"/>
    </g>
</svg>
