<svg width="88" height="35" xmlns="http://www.w3.org/2000/svg">
    <path d="M10.777 35c9.982 0 16.882-5.382 16.882-17.296S20.759.776 10.317.776H.473V35h10.304zm-.966-6.624H8.707V7.308h1.104c5.52 0 9.43 2.254 9.43 10.396 0 8.142-3.91 10.672-9.43 10.672zM46.933 35c7.452 0 13.386-3.128 13.386-10.12 0-4.554-2.622-7.13-6.072-8.05v-.184c2.76-1.058 4.462-4.37 4.462-7.406 0-6.578-5.658-8.464-12.742-8.464h-11.96V35h12.926zm-1.288-20.654h-3.404V7.032h3.404c3.45 0 5.06 1.012 5.06 3.45 0 2.346-1.564 3.864-5.06 3.864zm.69 14.352h-4.094v-8.28h4.094c4.002 0 5.98 1.104 5.98 3.91 0 2.944-2.024 4.37-5.98 4.37zM87.505 35v-6.9H74.211V.776h-8.234V35h21.528z" fill="#009A93" fill-rule="nonzero"/>
</svg>
