<svg xmlns="http://www.w3.org/2000/svg" width="31" height="31" viewBox="0 0 31 31">
    <g fill="none" fill-rule="evenodd" opacity=".2">
        <g>
            <g>
                <g transform="translate(-285.000000, -756.000000) translate(0.000000, 730.000000) translate(285.000000, 26.000000)">
                    <rect width="31" height="31" fill="#000" fill-opacity=".5" rx="4"/>
                    <g fill="#FFF" fill-rule="nonzero" opacity=".7">
                        <g>
                            <path d="M12.736 0H1.317C.59 0 0 .601 0 1.343v8.06c0 .742.59 1.344 1.317 1.344h11.419c.727 0 1.317-.602 1.317-1.344v-8.06c0-.742-.59-1.343-1.317-1.343zm0 1.343v1.142c-.616.511-1.597 1.306-3.694 2.98-.463.371-1.378 1.262-2.015 1.252-.637.01-1.553-.88-2.015-1.251-2.098-1.675-3.079-2.47-3.694-2.98V1.342h11.418zM1.317 9.403V4.21c.63.51 1.521 1.228 2.88 2.313.6.481 1.651 1.544 2.83 1.538 1.172.006 2.21-1.041 2.828-1.538 1.36-1.085 2.252-1.802 2.88-2.313v5.194H1.318z" transform="translate(0.000000, 0.000000) translate(8.611111, 10.333333)"/>
                        </g>
                    </g>
                </g>
            </g>
        </g>
    </g>
</svg>
