<svg width="24" height="25" xmlns="http://www.w3.org/2000/svg">
    <path d="M3 12.5a9 9 0 1 1 9.265 8.996L12 21.5a9 9 0 0 1-9-9zm6.721 7.148-.013-.023c-.477-.886-.863-2.043-1.118-3.375H5.504a7.52 7.52 0 0 0 4.217 3.398zm8.775-3.397H15.41c-.257 1.343-.648 2.508-1.131 3.397a7.524 7.524 0 0 0 4.217-3.397zm-4.625 0h-3.742c.404 1.808 1.091 2.999 1.871 2.999s1.467-1.19 1.871-3zm5.286-6-3.525-.001c.077.719.118 1.473.118 2.25 0 .777-.041 1.532-.118 2.251h3.524c.224-.71.344-1.467.344-2.251 0-.784-.12-1.54-.343-2.25zM4.5 12.5c0 .784.12 1.54.344 2.25l3.524.001A21.147 21.147 0 0 1 8.25 12.5c0-.777.041-1.531.118-2.25H4.843A7.497 7.497 0 0 0 4.5 12.5zm9.622-2.25H9.878c-.083.704-.128 1.461-.128 2.25 0 .789.045 1.546.128 2.25h4.244c.083-.704.128-1.461.128-2.25 0-.789-.045-1.546-.128-2.25zm.157-4.898.013.023c.477.887.863 2.044 1.118 3.376h3.087a7.52 7.52 0 0 0-4.218-3.399zm-4.558 0-.048.016a7.521 7.521 0 0 0-4.17 3.382H8.59c.257-1.343.648-2.509 1.131-3.398zM12 5.75c-.78 0-1.468 1.191-1.871 3h3.742c-.403-1.809-1.09-3-1.871-3z" fill="#B0B1B5" fill-rule="evenodd"/>
</svg>
