<svg width="63" height="63" xmlns="http://www.w3.org/2000/svg">
    <defs>
        <filter x="-.8%" y="-5.6%" width="101.7%" height="111.2%" filterUnits="objectBoundingBox" id="a">
            <feOffset dy="4" in="SourceAlpha" result="shadowOffsetOuter1"/>
            <feGaussianBlur stdDeviation="2" in="shadowOffsetOuter1" result="shadowBlurOuter1"/>
            <feColorMatrix values="0 0 0 0 0 0 0 0 0 0 0 0 0 0 0 0 0 0 0.1 0" in="shadowBlurOuter1" result="shadowMatrixOuter1"/>
            <feMerge>
                <feMergeNode in="shadowMatrixOuter1"/>
                <feMergeNode in="SourceGraphic"/>
            </feMerge>
        </filter>
    </defs>
    <g filter="url(#a)" transform="translate(-1522 -207)" fill="none" fill-rule="evenodd" opacity=".5">
        <g transform="translate(1534 219)">
            <rect width="39" height="39" rx="19.5"/>
            <path d="M30.096 18.052A23.47 23.47 0 0 0 30 16.451a14.833 14.833 0 0 0-.247-1.73 2.744 2.744 0 0 0-.799-1.444 2.428 2.428 0 0 0-1.43-.68c-1.701-.196-4.271-.294-7.711-.294-3.44 0-6.01.098-7.71.294a2.402 2.402 0 0 0-1.425.68 2.76 2.76 0 0 0-.793 1.443 13.232 13.232 0 0 0-.259 1.73c-.057.646-.09 1.18-.097 1.602-.008.423-.012 1.009-.012 1.76 0 .75.004 1.337.012 1.76.007.422.04.956.097 1.601.058.646.14 1.223.247 1.73.123.572.389 1.053.799 1.444.41.39.887.618 1.43.68 1.701.196 4.271.294 7.711.294 3.44 0 6.01-.098 7.71-.294a2.403 2.403 0 0 0 1.426-.68 2.76 2.76 0 0 0 .792-1.443c.115-.508.201-1.085.259-1.73.057-.646.09-1.18.097-1.602.008-.423.012-1.01.012-1.76 0-.751-.004-1.337-.012-1.76zm-6.216 2.394L17.997 24.2a.646.646 0 0 1-.391.117.782.782 0 0 1-.356-.094.701.701 0 0 1-.38-.657v-7.508c0-.297.127-.516.38-.657.26-.141.509-.133.747.023l5.883 3.755c.23.132.344.344.344.633 0 .29-.114.5-.344.634z" fill="#000"/>
        </g>
    </g>
</svg>
