<svg width="63" height="63" xmlns="http://www.w3.org/2000/svg">
    <defs>
        <filter x="-.8%" y="-5.6%" width="101.7%" height="111.2%" filterUnits="objectBoundingBox" id="a">
            <feOffset dy="4" in="SourceAlpha" result="shadowOffsetOuter1"/>
            <feGaussianBlur stdDeviation="2" in="shadowOffsetOuter1" result="shadowBlurOuter1"/>
            <feColorMatrix values="0 0 0 0 0 0 0 0 0 0 0 0 0 0 0 0 0 0 0.1 0" in="shadowBlurOuter1" result="shadowMatrixOuter1"/>
            <feMerge>
                <feMergeNode in="shadowMatrixOuter1"/>
                <feMergeNode in="SourceGraphic"/>
            </feMerge>
        </filter>
    </defs>
    <g filter="url(#a)" transform="translate(-1562 -207)" fill="none" fill-rule="evenodd" opacity=".5">
        <g transform="translate(1574 219)">
            <rect width="39" height="39" rx="19.5"/>
            <g fill="#000">
                <path d="M24.52 10.312a4.798 4.798 0 0 1 4.792 4.793v9.414a4.798 4.798 0 0 1-4.793 4.793h-9.414a4.798 4.798 0 0 1-4.793-4.793v-9.414a4.798 4.798 0 0 1 4.793-4.793h9.414zm0 2.067h-9.415a2.729 2.729 0 0 0-2.726 2.726v9.414a2.729 2.729 0 0 0 2.726 2.726h9.414a2.729 2.729 0 0 0 2.726-2.726v-9.414a2.729 2.729 0 0 0-2.726-2.726z"/>
                <path d="M19.812 14.918a4.9 4.9 0 0 1 4.894 4.894 4.9 4.9 0 0 1-4.894 4.894 4.9 4.9 0 0 1-4.894-4.894 4.9 4.9 0 0 1 4.894-4.894zm0 2.068a2.83 2.83 0 0 0-2.826 2.826 2.83 2.83 0 0 0 2.826 2.826 2.83 2.83 0 0 0 2.826-2.826 2.829 2.829 0 0 0-2.826-2.826zM24.863 15.93a1.16 1.16 0 0 1-1.158-1.158 1.16 1.16 0 0 1 2.316 0 1.16 1.16 0 0 1-1.158 1.158z"/>
            </g>
        </g>
    </g>
</svg>
