<svg width="40" height="40" xmlns="http://www.w3.org/2000/svg">
    <g fill="none" fill-rule="evenodd">
        <path fill="#E01616" d="M0 0h40v40H0z"/>
        <path d="M29.989 18.355a21.127 21.127 0 0 0-.095-1.497 13.38 13.38 0 0 0-.24-1.618 2.54 2.54 0 0 0-.776-1.349 2.398 2.398 0 0 0-1.39-.636c-1.651-.183-4.147-.274-7.488-.274-3.34 0-5.837.091-7.489.274-.528.058-.99.27-1.384.636a2.554 2.554 0 0 0-.77 1.349 11.939 11.939 0 0 0-.251 1.618 21.134 21.134 0 0 0-.095 1.497C10.004 18.75 10 19.298 10 20c0 .702.004 1.25.011 1.645.008.395.04.894.095 1.497.056.604.136 1.143.24 1.618.12.534.378.983.776 1.349.398.365.861.578 1.39.636 1.651.183 4.147.274 7.488.274s5.837-.091 7.489-.274c.528-.058.99-.27 1.384-.636.394-.366.65-.815.77-1.349.111-.475.195-1.015.251-1.618a21.21 21.21 0 0 0 .095-1.497c.007-.395.011-.943.011-1.645 0-.702-.004-1.25-.011-1.645zm-6.038 2.237-5.714 3.51a.644.644 0 0 1-.38.11.783.783 0 0 1-.346-.088.652.652 0 0 1-.368-.614v-7.02c0-.277.123-.482.368-.614.253-.131.495-.124.726.022l5.714 3.51c.223.124.335.321.335.592 0 .27-.112.468-.335.592z" fill="#FFF"/>
    </g>
</svg>
